<?xml version="1.0" standalone="no"?><!DOCTYPE svg PUBLIC "-//W3C//DTD SVG 1.1//EN" "http://www.w3.org/Graphics/SVG/1.1/DTD/svg11.dtd"><svg t="1591604569241" class="icon" viewBox="0 0 1024 1024" version="1.1" xmlns="http://www.w3.org/2000/svg" p-id="1350" xmlns:xlink="http://www.w3.org/1999/xlink" width="200" height="200"><defs><style type="text/css"></style></defs><path d="M1002.40608257 430.81057327c-6.76578556-33.82892782-38.13442831-53.51121321-47.97557017-59.66192753-7.38085682-4.92057178 24.60285719-181.44606596 24.60285552-181.44606593 7.99592809-0.61507125 14.76171365-7.99592809 14.76171362-15.99185619 0-9.22607062-7.38085682-16.60692742-16.60692744-16.60692909-9.22607062 0-16.60692742 7.38085682-16.60692909 16.60692909 0 6.15071431 3.07535632 11.07128607 7.99592975 14.1466424 0 0-35.05907033 175.9104246-40.59471334 177.75563836-5.53564303 1.84521379-28.90835603 3.07535632-30.7535715-0.61507126-1.23014253-3.69042925-3.07535632-176.52549583-3.07535632-176.52549585 7.38085682-1.84521379 12.30142859-7.99592809 12.3014286-15.99185617 0-9.22607062-7.38085682-16.60692742-16.6069291-16.60692911-9.22607062 0-16.60692742 7.38085682-16.60692743 16.60692911 0 6.76578556 4.30550051 12.91649986 9.84114185 15.37678492 0 0-1.84521379 177.1405671-10.45621314 179.60085216-9.22607062 1.84521379-27.06314223 11.07128607-39.36457084 19.6822854-42.43992715 29.5234273-59.04685625 137.77599627-70.11814065 190.05706529-27.06314223-55.35642703-52.89614197-175.29535331-133.4704974-252.17927785-115.01835454-109.4827115-396.72106138-115.01835454-478.52555772 105.17721099-62.73728385 169.7597103-9.22607062 271.86156496 7.38085683 302.00006352-55.35642703 0.61507125-93.49085533 1.23014253-93.49085534 1.23014251-52.28107071 11.07128607-108.25256899 78.11406876 22.75764174 81.80449802 131.0102107 3.69042925 631.06326927 51.05092649 733.78019521-17.83706997 81.80449799-54.74135573 116.86356834-156.22813918 109.48271152-212.19963746-6.76578556-56.58656953 86.1099985-76.26885497 71.34828484-154.38292536z m-55.35642868-11.68635733c6.15071431 0 11.68635733 4.92057178 11.68635733 11.68635733s-4.92057178 11.68635733-11.68635733 11.68635733-11.68635733-4.92057178-11.68635568-11.68635733 4.92057178-11.68635733 11.68635568-11.68635733z" fill="#1296db" p-id="1351"></path></svg>